<svg width="92" height="62" viewBox="0 0 92 62" fill="none" xmlns="http://www.w3.org/2000/svg">
<path fill-rule="evenodd" clip-rule="evenodd" d="M40.188 18.8932C40.73 26.9179 44.7693 33.3303 44.9531 33.618C45.4398 34.3798 46.559 34.3808 47.0464 33.618C47.2302 33.3303 51.2695 26.918 51.8115 18.8932C51.8751 17.9509 51.8862 17.0923 51.8551 16.2205C51.555 7.80486 47.2399 0.877944 47.0498 0.577064C46.5638 -0.192355 45.4357 -0.192355 44.9497 0.577064C44.7609 0.875884 40.5018 7.71324 40.1512 16.0532C40.1549 16.0532 40.1527 16.1066 40.1484 16.2099C40.1336 16.5639 40.0942 17.5043 40.188 18.8932ZM32.1179 27.3749L32.1179 27.3748L32.1179 27.3748C31.9753 27.2351 31.8994 27.1607 31.8859 27.1679C26.3224 21.5969 24.9802 13.7144 24.9257 13.3808C24.7896 12.5481 25.5143 11.827 26.3495 11.9625C26.636 12.0089 32.469 12.9948 37.6505 16.7486C37.5728 22.4277 39.262 28.2185 41.8215 33.1165C35.9096 31.0893 32.9309 28.1713 32.1179 27.3749ZM58.8536 28.3285C56.3297 30.469 53.2873 32.0506 50.1786 33.1167C52.7803 28.1384 54.4292 22.3366 54.3506 16.748C59.5317 12.9946 65.3641 12.0089 65.6506 11.9625C66.487 11.827 67.2104 12.549 67.0745 13.3808C67.0202 13.713 65.6878 21.5354 60.1787 27.1024C60.1742 27.1012 60.1484 27.1277 60.0952 27.1824L60.0951 27.1824C59.9455 27.3362 59.5786 27.7132 58.8536 28.3285ZM61.3928 29.3759C64.3919 30.3894 66.4504 31.86 66.5801 31.954C67.2601 32.4466 67.2614 33.4593 66.5801 33.9529C66.381 34.0971 61.6391 37.4848 55.9254 37.4848C53.353 37.4848 50.9781 36.7982 49.1256 36.03C53.5632 34.7928 57.9835 32.5973 61.3928 29.3759ZM44.7591 36.4508V40.9467C44.7591 41.6292 45.3146 42.1825 45.9998 42.1825C46.6849 42.1825 47.2404 41.6292 47.2404 40.9467V36.4508C46.4356 36.733 45.5653 36.7334 44.7591 36.4508ZM25.4197 31.954C25.5494 31.8601 27.6079 30.3894 30.607 29.3759C34.0174 32.5984 38.438 34.7931 42.8744 36.0299C41.0219 36.7981 38.6469 37.4848 36.0744 37.4848C30.3606 37.4848 25.6188 34.0971 25.4197 33.9529C24.7397 33.4603 24.7383 32.4476 25.4197 31.954Z" fill="white"/>
<path d="M19.9295 48.7625L17.1575 56.1825H15.8695L13.7275 50.5545L11.5575 56.1825H10.2695L7.51154 48.7625H8.78554L10.9415 54.6705L13.1815 48.7625H14.3155L16.5135 54.6985L18.7255 48.7625H19.9295ZM29.8943 52.5145C29.8943 52.6172 29.8849 52.7525 29.8663 52.9205H23.8463C23.9303 53.5739 24.2149 54.1012 24.7003 54.5025C25.1949 54.8945 25.8063 55.0905 26.5343 55.0905C27.4209 55.0905 28.1349 54.7919 28.6763 54.1945L29.4183 55.0625C29.0823 55.4545 28.6623 55.7532 28.1583 55.9585C27.6636 56.1639 27.1083 56.2665 26.4923 56.2665C25.7083 56.2665 25.0129 56.1079 24.4063 55.7905C23.7996 55.4639 23.3283 55.0112 22.9923 54.4325C22.6656 53.8539 22.5023 53.2005 22.5023 52.4725C22.5023 51.7539 22.6609 51.1052 22.9783 50.5265C23.3049 49.9479 23.7483 49.4999 24.3083 49.1825C24.8776 48.8559 25.5169 48.6925 26.2263 48.6925C26.9356 48.6925 27.5656 48.8559 28.1163 49.1825C28.6763 49.4999 29.1103 49.9479 29.4183 50.5265C29.7356 51.1052 29.8943 51.7679 29.8943 52.5145ZM26.2263 49.8265C25.5823 49.8265 25.0409 50.0225 24.6023 50.4145C24.1729 50.8065 23.9209 51.3199 23.8463 51.9545H28.6063C28.5316 51.3292 28.2749 50.8205 27.8363 50.4285C27.4069 50.0272 26.8703 49.8265 26.2263 49.8265ZM40.5665 52.5145C40.5665 52.6172 40.5572 52.7525 40.5385 52.9205H34.5185C34.6025 53.5739 34.8872 54.1012 35.3725 54.5025C35.8672 54.8945 36.4785 55.0905 37.2065 55.0905C38.0932 55.0905 38.8072 54.7919 39.3485 54.1945L40.0905 55.0625C39.7545 55.4545 39.3345 55.7532 38.8305 55.9585C38.3359 56.1639 37.7805 56.2665 37.1645 56.2665C36.3805 56.2665 35.6852 56.1079 35.0785 55.7905C34.4719 55.4639 34.0005 55.0112 33.6645 54.4325C33.3379 53.8539 33.1745 53.2005 33.1745 52.4725C33.1745 51.7539 33.3332 51.1052 33.6505 50.5265C33.9772 49.9479 34.4205 49.4999 34.9805 49.1825C35.5499 48.8559 36.1892 48.6925 36.8985 48.6925C37.6079 48.6925 38.2379 48.8559 38.7885 49.1825C39.3485 49.4999 39.7825 49.9479 40.0905 50.5265C40.4079 51.1052 40.5665 51.7679 40.5665 52.5145ZM36.8985 49.8265C36.2545 49.8265 35.7132 50.0225 35.2745 50.4145C34.8452 50.8065 34.5932 51.3199 34.5185 51.9545H39.2785C39.2039 51.3292 38.9472 50.8205 38.5085 50.4285C38.0792 50.0272 37.5425 49.8265 36.8985 49.8265ZM46.6608 56.2665C46.0541 56.2665 45.4708 56.1872 44.9108 56.0285C44.3508 55.8605 43.9121 55.6505 43.5948 55.3985L44.1548 54.3345C44.4815 54.5679 44.8781 54.7545 45.3448 54.8945C45.8115 55.0345 46.2828 55.1045 46.7588 55.1045C47.9348 55.1045 48.5228 54.7685 48.5228 54.0965C48.5228 53.8725 48.4435 53.6952 48.2848 53.5645C48.1261 53.4339 47.9255 53.3405 47.6828 53.2845C47.4495 53.2192 47.1135 53.1492 46.6748 53.0745C46.0775 52.9812 45.5875 52.8739 45.2048 52.7525C44.8315 52.6312 44.5095 52.4259 44.2388 52.1365C43.9681 51.8472 43.8328 51.4412 43.8328 50.9185C43.8328 50.2465 44.1128 49.7099 44.6728 49.3085C45.2328 48.8979 45.9841 48.6925 46.9268 48.6925C47.4215 48.6925 47.9161 48.7532 48.4108 48.8745C48.9055 48.9959 49.3115 49.1592 49.6288 49.3645L49.0548 50.4285C48.4481 50.0365 47.7341 49.8405 46.9128 49.8405C46.3435 49.8405 45.9095 49.9339 45.6108 50.1205C45.3121 50.3072 45.1628 50.5545 45.1628 50.8625C45.1628 51.1052 45.2468 51.2965 45.4148 51.4365C45.5828 51.5765 45.7881 51.6792 46.0308 51.7445C46.2828 51.8099 46.6328 51.8845 47.0808 51.9685C47.6781 52.0712 48.1588 52.1832 48.5228 52.3045C48.8961 52.4165 49.2135 52.6125 49.4748 52.8925C49.7361 53.1725 49.8668 53.5645 49.8668 54.0685C49.8668 54.7405 49.5775 55.2772 48.9988 55.6785C48.4295 56.0705 47.6501 56.2665 46.6608 56.2665ZM57.6085 48.6925C58.5511 48.6925 59.2978 48.9679 59.8485 49.5185C60.4085 50.0599 60.6885 50.8579 60.6885 51.9125V56.1825H59.3445V52.0665C59.3445 51.3479 59.1718 50.8065 58.8265 50.4425C58.4811 50.0785 57.9865 49.8965 57.3425 49.8965C56.6145 49.8965 56.0405 50.1112 55.6205 50.5405C55.2005 50.9605 54.9905 51.5672 54.9905 52.3605V56.1825H53.6465V45.7945H54.9905V49.8125C55.2705 49.4579 55.6345 49.1825 56.0825 48.9865C56.5398 48.7905 57.0485 48.6925 57.6085 48.6925ZM68.4948 56.2665C67.7574 56.2665 67.0948 56.1032 66.5068 55.7765C65.9188 55.4499 65.4568 55.0019 65.1208 54.4325C64.7941 53.8539 64.6308 53.2005 64.6308 52.4725C64.6308 51.7445 64.7941 51.0959 65.1208 50.5265C65.4568 49.9479 65.9188 49.4999 66.5068 49.1825C67.0948 48.8559 67.7574 48.6925 68.4948 48.6925C69.2321 48.6925 69.8901 48.8559 70.4688 49.1825C71.0568 49.4999 71.5141 49.9479 71.8408 50.5265C72.1768 51.0959 72.3448 51.7445 72.3448 52.4725C72.3448 53.2005 72.1768 53.8539 71.8408 54.4325C71.5141 55.0019 71.0568 55.4499 70.4688 55.7765C69.8901 56.1032 69.2321 56.2665 68.4948 56.2665ZM68.4948 55.0905C68.9708 55.0905 69.3954 54.9832 69.7688 54.7685C70.1514 54.5445 70.4501 54.2365 70.6648 53.8445C70.8794 53.4432 70.9868 52.9859 70.9868 52.4725C70.9868 51.9592 70.8794 51.5065 70.6648 51.1145C70.4501 50.7132 70.1514 50.4052 69.7688 50.1905C69.3954 49.9759 68.9708 49.8685 68.4948 49.8685C68.0188 49.8685 67.5894 49.9759 67.2068 50.1905C66.8334 50.4052 66.5348 50.7132 66.3108 51.1145C66.0961 51.5065 65.9888 51.9592 65.9888 52.4725C65.9888 52.9859 66.0961 53.4432 66.3108 53.8445C66.5348 54.2365 66.8334 54.5445 67.2068 54.7685C67.5894 54.9832 68.0188 55.0905 68.4948 55.0905ZM80.2375 48.6925C80.9562 48.6925 81.6002 48.8512 82.1695 49.1685C82.7388 49.4859 83.1822 49.9292 83.4995 50.4985C83.8262 51.0679 83.9895 51.7259 83.9895 52.4725C83.9895 53.2192 83.8262 53.8819 83.4995 54.4605C83.1822 55.0299 82.7388 55.4732 82.1695 55.7905C81.6002 56.1079 80.9562 56.2665 80.2375 56.2665C79.7055 56.2665 79.2155 56.1639 78.7675 55.9585C78.3288 55.7532 77.9555 55.4545 77.6475 55.0625V58.8985H76.3035V48.7625H77.5915V49.9385C77.8902 49.5279 78.2682 49.2199 78.7255 49.0145C79.1828 48.7999 79.6868 48.6925 80.2375 48.6925ZM80.1255 55.0905C80.6015 55.0905 81.0262 54.9832 81.3995 54.7685C81.7822 54.5445 82.0808 54.2365 82.2955 53.8445C82.5195 53.4432 82.6315 52.9859 82.6315 52.4725C82.6315 51.9592 82.5195 51.5065 82.2955 51.1145C82.0808 50.7132 81.7822 50.4052 81.3995 50.1905C81.0262 49.9759 80.6015 49.8685 80.1255 49.8685C79.6588 49.8685 79.2342 49.9805 78.8515 50.2045C78.4782 50.4192 78.1795 50.7225 77.9555 51.1145C77.7408 51.5065 77.6335 51.9592 77.6335 52.4725C77.6335 52.9859 77.7408 53.4432 77.9555 53.8445C78.1702 54.2365 78.4688 54.5445 78.8515 54.7685C79.2342 54.9832 79.6588 55.0905 80.1255 55.0905Z" fill="white"/>
</svg>
